<svg id="レイヤー_1" data-name="レイヤー 1" xmlns="http://www.w3.org/2000/svg" viewBox="0 0 84.95 48.23"><title>flick-left</title><path d="M100.72,54.56l0-.92c0-.29,0-.7-.06-1.07l-.17-1.33-.38-1.69c-.21-.6-.36-1.27-.65-1.94a23.79,23.79,0,0,0-2.28-4.41,33.34,33.34,0,0,0-3.76-4.63,44.68,44.68,0,0,0-5.07-4.43,59.3,59.3,0,0,0-6.06-4c-2.13-1.27-4.4-2.38-6.69-3.46s-4.64-2-7-2.88-4.67-1.64-7-2.32S57.13,20.2,55,19.69s-4.14-1-6-1.33-3.59-.67-5.12-.93l-4-.6-3.47-.44,0-.46,3.49.35,4,.5c1.54.22,3.28.47,5.17.8s3.93.71,6.08,1.18,4.41,1,6.72,1.63,4.7,1.35,7.09,2.16,4.79,1.73,7.16,2.74,4.69,2.11,6.91,3.35a61.1,61.1,0,0,1,6.34,4,46.66,46.66,0,0,1,5.42,4.49A35.49,35.49,0,0,1,99,41.94a26.11,26.11,0,0,1,2.63,4.78c.34.74.54,1.49.78,2.16s.33,1.33.48,1.9l.24,1.62c.08.48.06.81.09,1.12l.05.91Z" transform="translate(-18.34 -6.33)"/><polygon points="0 8.91 26.13 0 19.46 10.06 24.89 20.85 0 8.91"/></svg>