<svg id="レイヤー_1" data-name="レイヤー 1" xmlns="http://www.w3.org/2000/svg" viewBox="0 0 84.95 48.23"><title>flick-right</title><path d="M17.05,54.44l.05-.91c0-.31,0-.64.09-1.12l.24-1.62c.14-.58.29-1.22.48-1.9s.44-1.42.78-2.16a26.11,26.11,0,0,1,2.63-4.78,35.49,35.49,0,0,1,4.14-4.84,46.66,46.66,0,0,1,5.42-4.49,61.1,61.1,0,0,1,6.34-4c2.22-1.24,4.56-2.32,6.91-3.35s4.77-1.92,7.16-2.74,4.77-1.54,7.09-2.16,4.57-1.18,6.72-1.63,4.19-.85,6.08-1.18,3.63-.58,5.17-.8l4-.5,3.49-.35,0,.46-3.47.44-4,.6c-1.53.26-3.25.55-5.12.93s-3.89.8-6,1.33S61,20.8,58.7,21.48s-4.61,1.45-7,2.32-4.68,1.83-7,2.88-4.55,2.19-6.69,3.46a59.3,59.3,0,0,0-6.06,4A44.68,44.68,0,0,0,27,38.57a33.34,33.34,0,0,0-3.76,4.63,23.79,23.79,0,0,0-2.28,4.41c-.3.68-.44,1.35-.65,1.94l-.38,1.69-.17,1.33c-.06.38,0,.79-.06,1.07l0,.92Z" transform="translate(-17.05 -6.33)"/><polygon points="84.95 8.91 60.05 20.85 65.49 10.06 58.82 0 84.95 8.91"/></svg>