<?xml version="1.0" encoding="utf-8"?>
<!-- Generator: Adobe Illustrator 18.1.1, SVG Export Plug-In . SVG Version: 6.00 Build 0)  -->
<!DOCTYPE svg PUBLIC "-//W3C//DTD SVG 1.1//EN" "http://www.w3.org/Graphics/SVG/1.1/DTD/svg11.dtd">
<svg version="1.1" id="レイヤー_1" xmlns="http://www.w3.org/2000/svg" xmlns:xlink="http://www.w3.org/1999/xlink" x="0px"
	 y="0px" viewBox="0 0 720 300" enable-background="new 0 0 720 300" xml:space="preserve">
<line fill="none" stroke="#3E3A39" stroke-width="2" stroke-miterlimit="10" x1="434" y1="134.3" x2="529" y2="134.3"/>
<line fill="none" stroke="#3E3A39" stroke-width="2" stroke-miterlimit="10" x1="0" y1="257" x2="727" y2="257"/>
<line fill="none" stroke="#3E3A39" stroke-width="2" stroke-miterlimit="10" x1="22" y1="223" x2="749" y2="223"/>
<line fill="none" stroke="#3E3A39" stroke-width="2" stroke-miterlimit="10" x1="181" y1="134.3" x2="268" y2="134.3"/>
<line fill="none" stroke="#3E3A39" stroke-width="2" stroke-miterlimit="10" x1="522" y1="188.5" x2="551" y2="188.5"/>
<line fill="none" stroke="#3E3A39" stroke-width="2" stroke-miterlimit="10" x1="521.8" y1="199" x2="550.8" y2="199"/>
<line fill="none" stroke="#3E3A39" stroke-width="1.9445" stroke-miterlimit="10" x1="27" y1="257" x2="55.9" y2="222.6"/>
<line fill="none" stroke="#3E3A39" stroke-width="1.9445" stroke-miterlimit="10" x1="27" y1="257" x2="55.9" y2="222.6"/>
<line fill="none" stroke="#3E3A39" stroke-width="1.9445" stroke-miterlimit="10" x1="27" y1="257" x2="55.9" y2="222.6"/>
<line fill="none" stroke="#3E3A39" stroke-width="2" stroke-miterlimit="10" x1="181" y1="134.8" x2="194.3" y2="118.8"/>
<line fill="none" stroke="#3E3A39" stroke-width="2" stroke-miterlimit="10" x1="180.8" y1="133.5" x2="194.1" y2="149.5"/>
<line fill="none" stroke="#3E3A39" stroke-width="1.9445" stroke-miterlimit="10" x1="72" y1="257" x2="100.9" y2="222.6"/>
<line fill="none" stroke="#3E3A39" stroke-width="1.9445" stroke-miterlimit="10" x1="117" y1="257" x2="145.9" y2="222.6"/>
<line fill="none" stroke="#3E3A39" stroke-width="1.9445" stroke-miterlimit="10" x1="162" y1="257" x2="190.9" y2="222.6"/>
<line fill="none" stroke="#3E3A39" stroke-width="1.9445" stroke-miterlimit="10" x1="207" y1="257" x2="235.9" y2="222.6"/>
<line fill="none" stroke="#3E3A39" stroke-width="1.9445" stroke-miterlimit="10" x1="252" y1="257" x2="280.9" y2="222.6"/>
<line fill="none" stroke="#3E3A39" stroke-width="1.9445" stroke-miterlimit="10" x1="297" y1="257" x2="325.9" y2="222.6"/>
<line fill="none" stroke="#3E3A39" stroke-width="1.9445" stroke-miterlimit="10" x1="342" y1="257" x2="370.9" y2="222.6"/>
<line fill="none" stroke="#3E3A39" stroke-width="1.9445" stroke-miterlimit="10" x1="387" y1="257" x2="415.9" y2="222.6"/>
<line fill="none" stroke="#3E3A39" stroke-width="1.9445" stroke-miterlimit="10" x1="432" y1="257" x2="460.9" y2="222.6"/>
<line fill="none" stroke="#3E3A39" stroke-width="1.9445" stroke-miterlimit="10" x1="477" y1="257" x2="505.9" y2="222.6"/>
<line fill="none" stroke="#3E3A39" stroke-width="1.9445" stroke-miterlimit="10" x1="522" y1="257" x2="550.9" y2="222.6"/>
<line fill="none" stroke="#3E3A39" stroke-width="1.9445" stroke-miterlimit="10" x1="567" y1="257" x2="595.9" y2="222.6"/>
<line fill="none" stroke="#3E3A39" stroke-width="1.9445" stroke-miterlimit="10" x1="612" y1="257" x2="640.9" y2="222.6"/>
<line fill="none" stroke="#3E3A39" stroke-width="1.9445" stroke-miterlimit="10" x1="657" y1="257" x2="685.9" y2="222.6"/>
<line fill="none" stroke="#3E3A39" stroke-width="1.9445" stroke-miterlimit="10" x1="702" y1="257" x2="730.9" y2="222.6"/>
<g>
	<rect x="187.8" y="169.1" fill="#BCBCB3" width="326.9" height="68.5"/>
	<path fill="#BCBCB3" d="M268.1,128.5l-39.4,21l38.1,21l37.9-21L268.1,128.5z M266.8,168.4l-34.3-18.9l35.5-18.9l33,18.9
		L266.8,168.4z"/>
	<path fill="#BCBCB3" d="M434.6,128.5l-39.4,21l38.1,21l37.9-21L434.6,128.5z M433.3,168.4L399,149.5l35.5-18.9l33,18.9L433.3,168.4
		z"/>
	<circle fill="#BCBCB3" cx="212.9" cy="233.1" r="13.8"/>
	<circle fill="#BCBCB3" cx="244.4" cy="233.1" r="13.8"/>
	<circle fill="#BCBCB3" cx="455.4" cy="233.1" r="13.8"/>
	<circle fill="#BCBCB3" cx="486.9" cy="233.1" r="13.8"/>
	<path fill="#BCBCB3" d="M382,199.4h-61.4c-7.5,0-13.6-6.1-13.6-13.6v-15.9c0-7.5,6.1-13.6,13.6-13.6H382c7.5,0,13.6,6.1,13.6,13.6
		v15.9C395.6,193.3,389.5,199.4,382,199.4z"/>
	<path fill="#BCBCB3" d="M493.9,191.4h-7.2c-7.5,0-13.6-6.1-13.6-13.6v0c0-7.5,6.1-13.6,13.6-13.6h7.2c7.5,0,13.6,6.1,13.6,13.6v0
		C507.5,185.3,501.4,191.4,493.9,191.4z"/>
	<path fill="#BCBCB3" d="M216.5,191.4h-7.2c-7.5,0-13.6-6.1-13.6-13.6v0c0-7.5,6.1-13.6,13.6-13.6h7.2c7.5,0,13.6,6.1,13.6,13.6v0
		C230.1,185.3,224,191.4,216.5,191.4z"/>
	<path fill="#BCBCB3" d="M416.9,243.8h-43.4c-5.1,0-9.3-4.2-9.3-9.3v-10.4c0-5.1,4.2-9.3,9.3-9.3h43.4c5.1,0,9.3,4.2,9.3,9.3v10.4
		C426.1,239.6,422,243.8,416.9,243.8z"/>
	<rect x="290.7" y="221.8" fill="#BCBCB3" width="22" height="19.7"/>
	<rect x="187.8" y="210" fill="#D24644" width="326.9" height="12.5"/>
	<rect x="187.8" y="218.1" fill="#BCBCB3" width="326.9" height="1.7"/>
	<path fill="#DCDDDD" d="M216.3,208.4h-6.8c-3,0-5.4-2.4-5.4-5.4v-16.4c0-3,2.4-5.4,5.4-5.4h6.8c3,0,5.4,2.4,5.4,5.4V203
		C221.7,206,219.3,208.4,216.3,208.4z"/>
	<path fill="#DCDDDD" d="M493.7,208.4h-6.8c-3,0-5.4-2.4-5.4-5.4v-16.4c0-3,2.4-5.4,5.4-5.4h6.8c3,0,5.4,2.4,5.4,5.4V203
		C499.1,206,496.6,208.4,493.7,208.4z"/>
	<path fill="#DCDDDD" d="M242.2,225h-4c-3,0-5.4-2.4-5.4-5.4V186c0-3,2.4-5.4,5.4-5.4h4c3,0,5.4,2.4,5.4,5.4v33.6
		C247.6,222.6,245.1,225,242.2,225z"/>
	<path fill="#DCDDDD" d="M261.2,225h-4c-3,0-5.4-2.4-5.4-5.4V186c0-3,2.4-5.4,5.4-5.4h4c3,0,5.4,2.4,5.4,5.4v33.6
		C266.6,222.6,264.2,225,261.2,225z"/>
	<path fill="#DCDDDD" d="M445.8,225h-4.1c-3,0-5.4-2.4-5.4-5.4V186c0-3,2.4-5.4,5.4-5.4h4.1c3,0,5.4,2.4,5.4,5.4v33.5
		C451.2,222.6,448.7,225,445.8,225z"/>
	<path fill="#DCDDDD" d="M465,225h-4.1c-3,0-5.4-2.4-5.4-5.4V186c0-3,2.4-5.4,5.4-5.4h4.1c3,0,5.4,2.4,5.4,5.4v33.5
		C470.4,222.6,468,225,465,225z"/>
	<path fill="#DCDDDD" d="M311.1,201.9h-27.7c-3,0-5.4-2.4-5.4-5.4v-10.2c0-3,2.4-5.4,5.4-5.4h27.7c3,0,5.4,2.4,5.4,5.4v10.2
		C316.5,199.5,314.1,201.9,311.1,201.9z"/>
	<path fill="#DCDDDD" d="M365,201.9h-27.7c-3,0-5.4-2.4-5.4-5.4v-10.2c0-3,2.4-5.4,5.4-5.4H365c3,0,5.4,2.4,5.4,5.4v10.2
		C370.4,199.5,368,201.9,365,201.9z"/>
	<path fill="#DCDDDD" d="M419.2,201.9h-27.7c-3,0-5.4-2.4-5.4-5.4v-10.2c0-3,2.4-5.4,5.4-5.4h27.7c3,0,5.4,2.4,5.4,5.4v10.2
		C424.6,199.5,422.2,201.9,419.2,201.9z"/>
</g>
<text transform="matrix(1 0 0 1 28.4682 116.7939)"><tspan x="0" y="0" fill="#3E3A39" font-family="'KozGoPr6N-Regular-83pv-RKSJ-H'" font-size="38.7999">Gakugei</tspan><tspan x="0" y="47.4" fill="#3E3A39" font-family="'KozGoPr6N-Regular-83pv-RKSJ-H'" font-size="38.7999">Daigaku</tspan></text>
<text transform="matrix(1 0 0 1 559.2149 144.0678)" fill="#3E3A39" font-family="'KozGoPr6N-Regular-83pv-RKSJ-H'" font-size="38.7999">Shibuya</text>
<text transform="matrix(1 0 0 1 224.6543 92.9698)" fill="#D24644" font-family="'KozGoPr6N-Regular-83pv-RKSJ-H'" font-size="53.7689">10minutes</text>
<path fill="none" stroke="#3E3A39" stroke-width="2" stroke-miterlimit="10" d="M553.1,182.2c4.9-9.7,16-3.7,9.5,5.9"/>
<path fill="none" stroke="#3E3A39" stroke-width="2" stroke-miterlimit="10" d="M561.8,188.2c10.7-1.6,12.2,11,0.6,11.1"/>
<path fill="none" stroke="#3E3A39" stroke-width="2" stroke-miterlimit="10" d="M552.7,204.5c4.9,9.7,16,3.7,9.5-5.9"/>
<line fill="none" stroke="#3E3A39" stroke-width="2" stroke-miterlimit="10" x1="579.5" y1="188.5" x2="608.5" y2="188.5"/>
<line fill="none" stroke="#3E3A39" stroke-width="2" stroke-miterlimit="10" x1="579.2" y1="199" x2="608.2" y2="199"/>
<path fill="none" stroke="#3E3A39" stroke-width="2" stroke-miterlimit="10" d="M610.6,182.2c4.9-9.7,16-3.7,9.5,5.9"/>
<path fill="none" stroke="#3E3A39" stroke-width="2" stroke-miterlimit="10" d="M619.3,188.2c10.7-1.6,12.2,11,0.6,11.1"/>
<path fill="none" stroke="#3E3A39" stroke-width="2" stroke-miterlimit="10" d="M610.2,204.5c4.9,9.7,16,3.7,9.5-5.9"/>
<line fill="none" stroke="#3E3A39" stroke-width="2" stroke-miterlimit="10" x1="265.3" y1="134.3" x2="435.7" y2="134.3"/>
</svg>
